<svg width="141" height="157" viewBox="0 0 141 157" fill="none" xmlns="http://www.w3.org/2000/svg">
<path d="M141 113.583C141 116.56 139.355 119.145 136.848 120.477L74.965 155.257C73.7117 156.197 72.145 156.667 70.5 156.667C68.855 156.667 67.2883 156.197 66.035 155.257L4.15167 120.477C1.645 119.145 0 116.56 0 113.583V43.0833C0 40.1067 1.645 37.5217 4.15167 36.19L66.035 1.41C67.2883 0.470001 68.855 0 70.5 0C72.145 0 73.7117 0.470001 74.965 1.41L136.848 36.19C139.355 37.5217 141 40.1067 141 43.0833V113.583ZM70.5 16.8417L23.8133 43.0833L70.5 69.325L117.187 43.0833L70.5 16.8417ZM15.6667 108.962L62.6667 135.438V82.8767L15.6667 56.4783V108.962ZM125.333 108.962V56.4783L78.3333 82.8767V135.438L125.333 108.962Z" fill="#8A8A8A"/>
</svg>
